<svg height="354pt" viewBox="-46 0 354 354.98667" width="354pt" xmlns="http://www.w3.org/2000/svg"><path d="m31.214844 61.441406c-16.941406 0-30.722656-13.78125-30.722656-30.722656 0-16.9375 13.78125-30.71875 30.722656-30.71875 16.9375 0 30.71875 13.78125 30.71875 30.71875 0 16.941406-13.78125 30.722656-30.71875 30.722656zm0-47.789062c-9.414063 0-17.066406 7.65625-17.066406 17.066406s7.652343 17.066406 17.066406 17.066406c9.414062 0 17.066406-7.65625 17.066406-17.066406s-7.652344-17.066406-17.066406-17.066406zm0 0"/><path d="m195.054688 300.375c-58.195313 0-105.054688-48.546875-102.285157-107.351562 2.59375-55.078126 50.039063-97.449219 105.175781-97.449219h34.65625c13.195313 0 23.890626-10.699219 23.890626-23.894531 0-13.195313-10.695313-23.894532-23.890626-23.894532h-44.375c-82.945312 0-150.1875 67.242188-150.1875 150.1875 0 82.945313 67.242188 150.1875 150.1875 150.1875h44.375c13.195313 0 23.890626-10.699218 23.890626-23.894531s-10.695313-23.890625-23.890626-23.890625zm0 0" fill="#fcad3a"/><path d="m232.601562 354.988281h-44.375c-86.578124 0-157.011718-70.4375-157.011718-157.015625s70.433594-157.011718 157.011718-157.011718h44.375c16.9375 0 30.71875 13.777343 30.71875 30.71875 0 16.941406-13.78125 30.71875-30.71875 30.71875h-34.65625c-52.753906 0-95.953124 39.949218-98.351562 90.945312-1.246094 26.4375 8.09375 51.507812 26.292969 70.589844 18.21875 19.097656 42.785156 29.613281 69.167969 29.613281h37.546874c16.9375 0 30.71875 13.78125 30.71875 30.71875 0 16.941406-13.78125 30.722656-30.71875 30.722656zm-44.375-300.375c-79.046874 0-143.359374 64.3125-143.359374 143.359375 0 79.050782 64.3125 143.359375 143.359374 143.359375h44.375c9.414063 0 17.066407-7.65625 17.066407-17.066406s-7.652344-17.066406-17.066407-17.066406h-37.546874c-30.15625 0-58.226563-12.019531-79.039063-33.84375-20.808594-21.808594-31.488281-50.449219-30.0625-80.652344 2.746094-58.292969 51.941406-103.957031 111.992187-103.957031h34.65625c9.414063 0 17.066407-7.65625 17.066407-17.066406 0-9.410157-7.652344-17.066407-17.066407-17.066407zm0 0"/></svg>