<svg height="375pt" viewBox="-58 0 375 375.46667" width="375pt" xmlns="http://www.w3.org/2000/svg"><path d="m30.953125 61.441406c-16.941406 0-30.71875-13.78125-30.71875-30.722656 0-16.9375 13.777344-30.71875 30.71875-30.71875s30.71875 13.78125 30.71875 30.71875c0 16.941406-13.777344 30.722656-30.71875 30.722656zm0-47.789062c-9.414063 0-17.066406 7.65625-17.066406 17.066406s7.652343 17.066406 17.066406 17.066406 17.066406-7.65625 17.066406-17.066406-7.652343-17.066406-17.066406-17.066406zm0 0"/><path d="m252.820312 92.160156c0-9.425781-7.640624-17.066406-17.066406-17.066406h-139.945312v276.480469c0 9.425781 7.640625 17.066406 17.066406 17.066406s17.066406-7.640625 17.066406-17.066406v-153.601563h105.8125c9.425782 0 17.066406-7.640625 17.066406-17.066406s-7.640624-17.066406-17.066406-17.066406h-105.8125v-54.613282h105.8125c9.425782 0 17.066406-7.640624 17.066406-17.066406zm0 0" fill="#288eea"/><path d="m112.875 375.464844c-13.175781 0-23.894531-10.71875-23.894531-23.890625v-276.480469c0-3.769531 3.054687-6.828125 6.828125-6.828125h139.945312c13.171875 0 23.894532 10.71875 23.894532 23.894531 0 13.171875-10.722657 23.894532-23.894532 23.894532h-98.988281v40.957031h98.988281c13.171875 0 23.894532 10.722656 23.894532 23.894531 0 13.175781-10.722657 23.894531-23.894532 23.894531h-98.988281v146.773438c0 13.171875-10.71875 23.890625-23.890625 23.890625zm-10.242188-293.542969v269.652344c0 5.644531 4.59375 10.238281 10.242188 10.238281 5.644531 0 10.238281-4.59375 10.238281-10.238281v-153.601563c0-3.769531 3.054688-6.824218 6.828125-6.824218h105.8125c5.648438 0 10.238282-4.59375 10.238282-10.242188s-4.589844-10.238281-10.238282-10.238281h-105.8125c-3.773437 0-6.828125-3.058594-6.828125-6.828125v-54.613282c0-3.769531 3.054688-6.828124 6.828125-6.828124h105.8125c5.648438 0 10.238282-4.589844 10.238282-10.238282 0-5.648437-4.589844-10.238281-10.238282-10.238281zm0 0"/></svg>