<svg id="Capa_1" enable-background="new 0 0 512 512" height="512" viewBox="0 0 512 512" width="512" xmlns="http://www.w3.org/2000/svg"><path d="m300.023 490c-39.158 0-78.125-9.479-112.685-27.411-1.066-.553-2.062-1.232-2.966-2.023l-82.485-72.133c-.902-.789-1.706-1.683-2.396-2.663-29.091-41.37-44.468-90.048-44.468-140.77 0-65.442 25.484-126.967 71.759-173.241s107.8-71.759 173.241-71.759c.755 0 1.502.023 2.25.049.346.012.691.025 1.038.03 6.957.089 12.939 4.949 14.451 11.74s-1.845 13.73-8.106 16.761c-64.54 31.237-104.633 95.005-104.633 166.42 0 102.009 82.99 185 185 185 34.983 0 69.194-9.985 98.935-28.875 5.876-3.735 13.551-2.932 18.53 1.938 4.978 4.869 5.951 12.523 2.35 18.482-21.432 35.463-51.725 65.145-87.604 85.836-37.002 21.34-79.262 32.619-122.211 32.619z" fill="#fff546"/><path d="m488.958 351.125c-29.74 18.89-63.951 28.875-98.935 28.875-52.687 0-100.298-22.14-134.023-57.603v163.605c14.496 2.645 29.246 3.999 44.023 3.999 42.948 0 85.209-11.279 122.211-32.619 35.879-20.691 66.172-50.373 87.604-85.836 3.602-5.959 2.628-13.614-2.35-18.482-4.979-4.87-12.654-5.674-18.53-1.939z" fill="#ffdc28"/><path d="m309.656 28.58c6.262-3.031 9.618-9.97 8.106-16.761s-7.494-11.651-14.451-11.74c-.347-.004-.692-.018-1.038-.03-.748-.025-1.495-.049-2.25-.049-14.924 0-29.641 1.341-44.023 3.936v63.527c15.078-15.717 33.128-28.947 53.656-38.883z" fill="#ffdc28"/><path d="m427 200h-80c-24.813 0-45-20.187-45-45 0-23.991 18.869-43.657 42.547-44.934 6.173-17.494 22.872-30.066 42.453-30.066s36.28 12.571 42.453 30.066c23.678 1.277 42.547 20.943 42.547 44.934 0 24.813-20.187 45-45 45z" fill="#bbe3f8"/><path d="m155 512h-100c-30.327 0-55-24.673-55-55s24.673-55 55-55c2.324 0 4.646.154 6.951.459 6.391-23.294 27.753-40.459 53.049-40.459 25.722 0 47.376 17.747 53.359 41.641 23.894 5.983 41.641 27.638 41.641 53.359 0 30.327-24.673 55-55 55z" fill="#d2f5ff"/></svg>